<?xml version="1.0" standalone="yes"?>
<svg xmlns="http://www.w3.org/2000/svg" width="50" height="50">
<path style="fill:#010101; stroke:none;" d="M0 0L0 50L50 50L50 0L0 0z"/>
<path style="fill:#ffffff; stroke:none;" d="M9.00077 3.76157C1.42813 6.4089 2.3806 15.3238 5.52932 21C10.6123 30.1632 29.2429 52.7312 41.956 45.9722C51.1489 41.0848 44.5173 32.075 37 30.4367C33.9396 29.7698 30.9392 31.0499 28.0039 29.5926C25.5542 28.3765 23.3069 26.133 21.6883 23.9606C18.3426 19.4704 20.5919 -0.290581 9.00077 3.76157z"/>
<path style="fill:#010101; stroke:none;" d="M10.0185 7.34568C4.09902 9.05466 6.89207 16.5142 8.8804 20C12.9264 27.0932 29.9819 48.1747 39.9367 42.9568C43.7831 40.9407 43.2004 37.3231 39.9367 35.152C35.7083 32.3391 32.5857 35.7673 28.5756 34.4313C18.3247 31.0161 17.2089 22.0021 16.3688 13.9961C16.0784 11.228 13.4468 6.35592 10.0185 7.34568z"/>
</svg>
